<svg viewBox="0 0 24 24" fill="none" xmlns="http://www.w3.org/2000/svg">
  <path d="M12 15C13.6569 15 15 13.6569 15 12C15 10.3431 13.6569 9 12 9C10.3431 9 9 10.3431 9 12C9 13.6569 10.3431 15 12 15Z" fill="currentColor"/>
  <path d="M12 1C12.5523 1 13 1.44772 13 2V4C13 4.55228 12.5523 5 12 5C11.4477 5 11 4.55228 11 4V2C11 1.44772 11.4477 1 12 1Z" fill="currentColor"/>
  <path d="M12 19C12.5523 19 13 19.4477 13 20V22C13 22.5523 12.5523 23 12 23C11.4477 23 11 22.5523 11 22V20C11 19.4477 11.4477 19 12 19Z" fill="currentColor"/>
  <path d="M23 12C23 12.5523 22.5523 13 22 13H20C19.4477 13 19 12.5523 19 12C19 11.4477 19.4477 11 20 11H22C22.5523 11 23 11.4477 23 12Z" fill="currentColor"/>
  <path d="M5 12C5 12.5523 4.55228 13 4 13H2C1.44772 13 1 12.5523 1 12C1 11.4477 1.44772 11 2 11H4C4.55228 11 5 11.4477 5 12Z" fill="currentColor"/>
  <path d="M19.0711 4.92893C19.466 4.53401 20.0992 4.53401 20.4941 4.92893L21.9056 6.34038C22.3005 6.73531 22.3005 7.36847 21.9056 7.7634C21.5107 8.15833 20.8775 8.15833 20.4826 7.7634L19.0711 6.35195C18.6762 5.95703 18.6762 5.32386 19.0711 4.92893Z" fill="currentColor"/>
  <path d="M4.92893 19.0711C5.32386 18.6762 5.95703 18.6762 6.35195 19.0711L7.7634 20.4826C8.15833 20.8775 8.15833 21.5107 7.7634 21.9056C7.36847 22.3005 6.73531 22.3005 6.34038 21.9056L4.92893 20.4941C4.53401 20.0992 4.53401 19.466 4.92893 19.0711Z" fill="currentColor"/>
  <path d="M20.4941 19.0711C20.8892 19.466 20.8892 20.0992 20.4941 20.4941L19.0826 21.9056C18.6877 22.3005 18.0545 22.3005 17.6596 21.9056C17.2647 21.5107 17.2647 20.8775 17.6596 20.4826L19.0711 19.0711C19.466 18.6762 20.0992 18.6762 20.4941 19.0711Z" fill="currentColor"/>
  <path d="M6.34038 4.92893C6.73531 4.53401 7.36847 4.53401 7.7634 4.92893L7.7634 4.92893L9.17485 6.34038C9.56978 6.73531 9.56978 7.36847 9.17485 7.7634C8.77993 8.15833 8.14676 8.15833 7.75184 7.7634L6.34038 6.35195C5.94546 5.95703 5.94546 5.32386 6.34038 4.92893Z" fill="currentColor"/>
</svg>
